<svg xmlns="http://www.w3.org/2000/svg" xmlns:xlink="http://www.w3.org/1999/xlink" viewBox="0 0 148.42 94.58"><defs><style>.cls-1{fill:#fff;}.cls-2{fill:url(#linear-gradient);}.cls-3{fill:url(#linear-gradient-2);}.cls-4{fill:url(#linear-gradient-3);}.cls-5{fill:url(#linear-gradient-4);}.cls-6{fill:url(#linear-gradient-5);}.cls-7{fill:#132c47;}</style><linearGradient id="linear-gradient" x1="756.27" y1="-6.31" x2="790.81" y2="113.63" gradientTransform="translate(-630.8)" gradientUnits="userSpaceOnUse"><stop offset="0" stop-color="#fff"></stop><stop offset="0" stop-color="#f0f0f1"></stop><stop offset="1" stop-color="#132c47"></stop></linearGradient><linearGradient id="linear-gradient-2" x1="704.56" y1="31.71" x2="776.56" y2="31.71" gradientTransform="translate(-630.8)" gradientUnits="userSpaceOnUse"><stop offset="0" stop-color="#132c47"></stop><stop offset="1" stop-color="#56a9dd"></stop></linearGradient><linearGradient id="linear-gradient-3" x1="704.56" y1="41.65" x2="776.56" y2="41.65" xlink:href="#linear-gradient-2"></linearGradient><linearGradient id="linear-gradient-4" x1="704.56" y1="51.59" x2="776.56" y2="51.59" xlink:href="#linear-gradient-2"></linearGradient><linearGradient id="linear-gradient-5" x1="704.56" y1="21.78" x2="776.56" y2="21.78" xlink:href="#linear-gradient-2"></linearGradient></defs><g id="Layer_2" data-name="Layer 2"><g id="Layer_1-2" data-name="Layer 1"><path class="cls-1" d="M128.8.29a3.52,3.52,0,0,0-2.47-.13,82.42,82.42,0,0,0-14.67,4.63l-2.21,1a123.14,123.14,0,0,0-13,6.69c-.65.38-1.3.77-1.94,1.17a115.83,115.83,0,0,0-11.33,7.83L81.5,22.79a58.33,58.33,0,0,0-5.69,5.34c-.7.76-1.39,1.56-2,2.43v3.05c.66-.76,1.35-1.46,2-2.12a56.24,56.24,0,0,1,5.69-4.67l1.68-1.19a117.81,117.81,0,0,1,11.33-6.85c.64-.35,1.29-.69,1.94-1a134,134,0,0,1,13-5.85l2.21-.83A90.84,90.84,0,0,1,126.33,7a4,4,0,0,1,2.47.11,113.65,113.65,0,0,1,17,9.6V11.26A111,111,0,0,0,128.8.29Z"></path><path class="cls-1" d="M128.8,14a4.61,4.61,0,0,0-2.47-.09,102.25,102.25,0,0,0-14.67,3.47l-2.21.71c-4.53,1.5-8.86,3.19-13,5L94.51,24a125.56,125.56,0,0,0-11.33,5.88q-.84.5-1.68,1a55.34,55.34,0,0,0-5.69,4c-.7.57-1.39,1.17-2,1.82v3.06c.66-.55,1.35-1,2-1.52a56.1,56.1,0,0,1,5.69-3.33L83.18,34c3.58-1.76,7.37-3.38,11.33-4.9l1.94-.73c4.15-1.52,8.48-2.93,13-4.18l2.21-.59a120.11,120.11,0,0,1,14.67-2.89,5.3,5.3,0,0,1,2.47.08,131,131,0,0,1,17,6.85V22.2A121.54,121.54,0,0,0,128.8,14Z"></path><path class="cls-1" d="M128.8,27.66a6.84,6.84,0,0,0-2.47-.07c-5.07.53-10,1.35-14.67,2.32l-2.21.47q-6.76,1.5-13,3.35l-1.94.58c-4,1.21-7.74,2.5-11.33,3.92l-1.68.68a60.55,60.55,0,0,0-5.69,2.67c-.7.37-1.38.77-2,1.21v3.06c.67-.33,1.35-.63,2-.91,1.82-.74,3.73-1.39,5.69-2l1.68-.51c3.6-1.07,7.38-2,11.33-2.94l1.94-.44q6.24-1.38,13-2.51l2.21-.35c4.72-.73,9.61-1.34,14.67-1.74a9.29,9.29,0,0,1,2.47,0c5.9,1.16,11.56,2.52,17,4.12V33.15A150.42,150.42,0,0,0,128.8,27.66Z"></path><path class="cls-1" d="M128.8,41.34a13.59,13.59,0,0,0-2.47,0c-5.06.26-9.94.67-14.67,1.16-.74.07-1.48.16-2.21.24q-6.75.74-13,1.67l-1.94.29q-5.91.9-11.33,2L81.5,47c-2,.4-3.86.83-5.69,1.33-.7.19-1.38.39-2,.62v3l2-.31c1.84-.25,3.74-.46,5.69-.66l1.68-.17q5.43-.54,11.33-1l1.94-.15q6.26-.47,13-.83c.73,0,1.47-.09,2.21-.12q7.09-.37,14.67-.58c.82,0,1.65,0,2.47,0q8.82.59,17,1.38V44.09Q137.63,42.49,128.8,41.34Z"></path><path class="cls-2" d="M145.77,44.09V11.26a111,111,0,0,0-17-11,2.38,2.38,0,0,0-.9-.27V55h17.87V44.09Z"></path><path class="cls-3" d="M128.8,20.82a5.3,5.3,0,0,0-2.47-.08,120.11,120.11,0,0,0-14.67,2.89l-2.21.59c-4.52,1.25-8.85,2.66-13,4.18l-1.94.73c-4,1.52-7.75,3.14-11.33,4.9l-1.68.85a56.1,56.1,0,0,0-5.69,3.33c-.7.48-1.39,1-2,1.52v3.06c.67-.44,1.35-.84,2-1.21a60.55,60.55,0,0,1,5.69-2.67l1.68-.68c3.59-1.42,7.37-2.71,11.33-3.92l1.94-.58q6.24-1.84,13-3.35l2.21-.47c4.71-1,9.6-1.79,14.67-2.32a6.84,6.84,0,0,1,2.47.07,150.42,150.42,0,0,1,17,5.49V27.67A131,131,0,0,0,128.8,20.82Z"></path><path class="cls-4" d="M128.8,34.5a9.29,9.29,0,0,0-2.47,0c-5.06.4-10,1-14.67,1.74l-2.21.35q-6.75,1.13-13,2.51l-1.94.44c-4,.91-7.73,1.87-11.33,2.94l-1.68.51c-2,.61-3.87,1.26-5.69,2-.7.28-1.38.58-2,.91v3.07c.67-.23,1.35-.43,2-.62,1.83-.5,3.74-.93,5.69-1.33l1.68-.34q5.41-1.07,11.33-2l1.94-.29q6.26-.93,13-1.67c.73-.08,1.47-.17,2.21-.24,4.73-.49,9.61-.9,14.67-1.16a13.59,13.59,0,0,1,2.47,0q8.82,1.15,17,2.75V38.62C140.36,37,134.7,35.66,128.8,34.5Z"></path><path class="cls-5" d="M128.8,48.18c-.82,0-1.65,0-2.47,0q-7.58.19-14.67.58c-.74,0-1.48.07-2.21.12q-6.74.36-13,.83l-1.94.15q-5.91.45-11.33,1L81.5,51c-2,.2-3.85.41-5.69.66l-2,.31V55h72V49.56Q137.61,48.75,128.8,48.18Z"></path><path class="cls-6" d="M128.8,7.13A4,4,0,0,0,126.33,7a90.84,90.84,0,0,0-14.67,4.05l-2.21.83a134,134,0,0,0-13,5.85c-.65.34-1.3.68-1.94,1a117.81,117.81,0,0,0-11.33,6.85L81.5,26.82a56.24,56.24,0,0,0-5.69,4.67c-.7.66-1.39,1.36-2,2.12v3.06c.66-.65,1.35-1.25,2-1.82a55.34,55.34,0,0,1,5.69-4q.84-.53,1.68-1A125.56,125.56,0,0,1,94.51,24l1.94-.87c4.14-1.83,8.47-3.52,13-5l2.21-.71a102.25,102.25,0,0,1,14.67-3.47,4.61,4.61,0,0,1,2.47.09,121.54,121.54,0,0,1,17,8.23V16.73A113.65,113.65,0,0,0,128.8,7.13Z"></path><path class="cls-7" d="M0,24.49H3.06V34.73a5.29,5.29,0,0,1,3.85-1.47,6.56,6.56,0,0,1,6.83,6.48V55H10.68V39.74a3.56,3.56,0,0,0-3.77-3.46,3.63,3.63,0,0,0-3.85,3.46V55H0Z"></path><path class="cls-7" d="M32.16,48.91a6.53,6.53,0,0,1-6.79,6.51,6.67,6.67,0,0,1-6.95-6.51V39.74a6.61,6.61,0,0,1,6.91-6.48,6.56,6.56,0,0,1,6.83,6.48Zm-3.06,0V39.74a3.56,3.56,0,0,0-3.77-3.46,3.63,3.63,0,0,0-3.85,3.46v9.17a3.64,3.64,0,0,0,3.89,3.45A3.5,3.5,0,0,0,29.1,48.91Z"></path><path class="cls-7" d="M38.23,48.91V36.68H34.46v-3h3.77V27.55h3.06v6.11H47v3H41.29V48.91A3,3,0,0,0,44.35,52h1.43V55H44.35A6.12,6.12,0,0,1,38.23,48.91Z"></path><path class="cls-7" d="M61.94,55H57.73c-4.57,0-8-3.09-8-7.66V40.17a6.76,6.76,0,0,1,6.95-6.91,6.62,6.62,0,0,1,6.79,6.91v5.72H52.76v1.47c0,2.86,2.07,4.61,5,4.61h4.21ZM52.76,40.17v2.66h7.63V40.17a3.57,3.57,0,0,0-3.74-3.85A3.7,3.7,0,0,0,52.76,40.17Z"></path><path class="cls-7" d="M70.71,48.91A3.09,3.09,0,0,0,73.77,52V55a6.12,6.12,0,0,1-6.12-6.11V24.49h3.06Z"></path><path class="cls-7" d="M70.08,57.89v3.67a3.85,3.85,0,0,0-3.91,3.68v3.14a7.77,7.77,0,0,1-8.07,7.83c-2.19,0-3,1-3,2s1.09,1.71,3.1,1.71c6.3,0,9.78,3.44,9.78,7.35s-3.82,7.35-9.78,7.35c-5,0-9.59-2.77-9.59-7.35,0-2.91,1.76-4.87,4.34-6.06a4.06,4.06,0,0,1-1.15-2.91,3.94,3.94,0,0,1,1.91-3.34A7.71,7.71,0,0,1,50,68.38V65.24c0-5,4.06-7.83,8.11-7.83a8.81,8.81,0,0,1,6.39,3A7.43,7.43,0,0,1,70.08,57.89Zm-18,29.34c0,2.53,3.2,3.77,6.16,3.77,3.86,0,6.29-1.76,6.29-3.77s-2.05-3.67-6.44-3.67C54.71,83.56,52.09,85.18,52.09,87.23ZM62.73,68.38V65.24c0-3-2.53-4.16-4.58-4.16s-4.58,1.15-4.58,4.16v3.14c0,2.49,2,4.16,4.53,4.16S62.73,70.91,62.73,68.38Z"></path><path class="cls-7" d="M87.54,83.56H82.48c-5.48,0-9.63-3.72-9.63-9.21V65.71a8.11,8.11,0,0,1,8.35-8.3,8,8,0,0,1,8.16,8.3v6.87H76.52v1.77c0,3.43,2.48,5.53,6,5.53h5.06Zm-11-17.85v3.2h9.16v-3.2a4.29,4.29,0,0,0-4.48-4.63A4.45,4.45,0,0,0,76.52,65.71Z"></path><path class="cls-7" d="M104.29,57.41c4.49,0,8.21,3.25,8.21,7.78V83.56h-3.68V65.19A4.27,4.27,0,0,0,104.29,61a4.36,4.36,0,0,0-4.63,4.15V83.56H96V65.19a3.71,3.71,0,0,0-3.67-3.68V57.89a7.4,7.4,0,0,1,5.44,2.38A8.46,8.46,0,0,1,104.29,57.41Z"></path><path class="cls-7" d="M122.76,54.21h-3.68V50.54h3.68Zm-3.68,29.35V57.89h3.68V83.56Z"></path><path class="cls-7" d="M143.94,83.56h-5.06c-5.48,0-9.63-3.72-9.63-9.21V65.71a8.11,8.11,0,0,1,8.35-8.3,8,8,0,0,1,8.15,8.3v6.87H132.92v1.77c0,3.43,2.48,5.53,6,5.53h5.06Zm-11-17.85v3.2h9.16v-3.2a4.29,4.29,0,0,0-4.48-4.63A4.45,4.45,0,0,0,132.92,65.71Z"></path><path class="cls-1" d="M119.05,49.87v4.66h3.75V49.81A31.13,31.13,0,0,0,119.05,49.87Z"></path><path class="cls-1" d="M147.11,57.39a1.32,1.32,0,1,1-1.32,1.31A1.31,1.31,0,0,1,147.11,57.39Zm0,2.36a1,1,0,1,0-1.05-1A1,1,0,0,0,147.11,59.75Zm-.07-.91H147v.58h-.27V58h.43a.43.43,0,0,1,.43.43.36.36,0,0,1-.22.34c.2.13.09.39.3.39v.28a.42.42,0,0,1-.43-.42A.18.18,0,0,0,147,58.84Zm.08-.28a.15.15,0,0,0,.16-.15.16.16,0,0,0-.16-.16H147v.31Z"></path></g></g></svg>